# xmcd
#
# Track frame offsets: 
#        150
#        14082
#        28370
#        51892
#        64338
#        80194
#        98955
#        117179
#        132695
#        149176
#        166560
#        175949
#        194229
#        212186
#        225687
#        239086
#        253194
#
# Disc length: 3671 seconds
#
# Revision: 0
# Processed by: cddbd v1.5.2PL0 Copyright (c) Steve Scherf et al.
# Submitted via: ExactAudioCopyFreeDBPlugin 1.0
#
DISCID=190e5511
DTITLE=Various Artist - Blues and Roots 2010
DYEAR=2012
DGENRE=Blues
TTITLE0=John Butler Trio - One Way Road
TTITLE1=Dan Sultan - Letter
TTITLE2=Blue King Brown - Woman's Revolution
TTITLE3=Wilson Pickers - Shake It Down
TTITLE4=The Black Keys - Tighten Up
TTITLE5=Angus and Julia Stone - And The Boys
TTITLE6=Cat Empire - The Heart Is A Cannibal
TTITLE7=Michael Franti and Spearhead - Shake It
TTITLE8=Andrew Morris - Lady Venus
TTITLE9=C. W. Stoneking - The Love Me Or Die
TTITLE10=Folk Uke - Tonight You Belong To Me
TTITLE11=Matt Costa - Never Looking Back
TTITLE12=Elliott Brood - Write It All Down For You
TTITLE13=ALO - Big Appetite
TTITLE14=Justin Townes Earle - What I Mean To You
TTITLE15=Ash Grunwald - Hot Mama
TTITLE16=Jen Cloher and The Endless Summer - Mothers Desk
EXTD=
EXTT0=
EXTT1=
EXTT2=
EXTT3=
EXTT4=
EXTT5=
EXTT6=
EXTT7=
EXTT8=
EXTT9=
EXTT10=
EXTT11=
EXTT12=
EXTT13=
EXTT14=
EXTT15=
EXTT16=
PLAYORDER=
